<?xml version="1.0" encoding="UTF-8"?>
<svg version="1.1" viewBox="0 0 2048 2048" width="512" height="512" xmlns="http://www.w3.org/2000/svg">
<path transform="translate(573,48)" d="m0 0h803l19 19 7 8 10 10 7 8 13 13 7 8 7 7 7 8 16 17 7 7 7 8 13 13 7 8 7 7 7 8 16 17 7 7 7 8 13 13 7 8 7 7 7 8 16 17 7 7 7 8 13 13 7 8 7 7 7 8 16 17 7 7 7 8 13 13 7 8 7 7 7 8 16 17 7 7 7 8 13 13 7 8 7 7 7 8 16 17 7 7 7 8 13 13 7 8 7 7 7 8 16 17 7 7 7 8 13 13 7 8 7 7 7 8 16 17 7 7 7 8 14 14 14 16v1139l-1 22-4 23-6 21-8 19-9 17-9 13-10 13-19 19-14 11-16 10-17 9-24 9-23 5-15 2-21 1h-1177l-23-1-21-3-19-5-21-8-21-11-17-12-14-12-14-14-13-17-8-13-10-19-9-25-5-24-2-25v-101h-270l-11-4-8-6-7-9-3-7-1-5v-685l4-11 4-6 7-7 12-6 9-1h264v-730l2-21 4-20 5-16 6-15 8-16 11-17 10-13 7-8h2l2-4 8-7 9-8 13-9 15-9 19-9 18-6 23-5z" fill="#EF6A67"/>
<path transform="translate(390,962)" d="m0 0 1210 1 20 1 10 3 9 7 6 8 2 6 1 12 1 37v627l-1 17-3 10-7 10-7 6-7 3-9 1-38 1h-1187l-1-1-270-1-11-4-8-6-7-9-3-7-1-5v-685l4-11 4-6 7-7 12-6 9-1h262z" fill="#E6282A"/>
<path transform="translate(1377,50)" d="m0 0 3 1 7 8 8 8 7 8 10 10 7 8 13 13 7 8 7 7 7 8 16 17 7 7 7 8 13 13 7 8 7 7 7 8 16 17 7 7 7 8 13 13 7 8 7 7 7 8 16 17 7 7 7 8 13 13 7 8 7 7 7 8 16 17 7 7 7 8 13 13 7 8 7 7 7 8 16 17 7 7 7 8 13 13 7 8 7 7 7 8 16 17 7 7 7 8 13 13 7 8 7 7 7 8 16 17 7 7 7 8 13 13 7 8 7 7 7 8 16 17 7 7 7 8 14 14 7 8 5 5v4l-40 1h-412l-22-2-14-3-15-5-21-11-9-7-13-11-2-4h-2l-11-15-5-8-5-10-6-16-3-14-2-24v-483z" fill="#E6282A"/>
<path transform="translate(790,1138)" d="m0 0h65l33 1 19 3 15 4 16 7 12 7 13 11 11 14 8 15 5 15 4 24 1 21v156l-2 23-3 16-4 12-8 16-8 11-3 4h-2l-2 4-10 8-14 8-12 5-18 5-22 3h-115l-9-3-8-7-2-5v-360l2-7 5-5 6-4 4-1z" fill="#FDFDFD"/>
<path transform="translate(498,1138)" d="m0 0h67l35 1 19 3 17 5 11 5 11 6 9 7 12 12 8 13 6 12 5 19 2 12 1 13v28l-3 22-4 15-6 15-12 17-10 10-13 9-14 7-15 5-19 4-7 1-20 1h-65v136l-2 5-5 5-9 4-5 1h-15l-10-3-8-6-3-8v-359l3-8 8-7 4-1z" fill="#FDFDFD"/>
<path transform="translate(807,1189)" d="m0 0h75l15 3 14 7 9 8 7 11 5 13 2 11 1 13v156l-1 17-3 16-8 15-4 5-12 9-12 5-7 2-9 1h-71l-1-1z" fill="#E6292B"/>
<path transform="translate(1098,1138)" d="m0 0h164l18 1 5 5 5 10 1 13-4 13-6 7-3 1-27 1h-135v123h86l7 3 5 6 3 9v9l-3 9-6 7-4 2h-88v151l-2 12-4 5-7 4-8 2h-15l-13-4-5-4-3-5-1-8v-352l2-9 7-6 5-3 4-1z" fill="#FDFDFD"/>
<path transform="translate(513,1189)" d="m0 0h80l16 4 10 5 10 9 4 5 7 14 3 11 1 8v32l-3 17-5 13-8 10-9 8-12 6-13 3-13 1h-67l-1-2z" fill="#E6282A"/>
<path transform="translate(513,1189)" d="m0 0h80l6 1v1l-85-1 1 136 2 7h77v1l-13 1h-67l-1-2z" fill="#F06B68"/>
</svg>
